<mxfile host="app.diagrams.net" agent="Mozilla/5.0 (X11; Linux x86_64) AppleWebKit/537.36 (KHTML, like Gecko) Chrome/135.0.0.0 Safari/537.36" version="26.2.14">
  <diagram id="robot-behavior-testing-framework" name="Robot Behavior Testing Framework">
    <mxGraphModel dx="874" dy="584" grid="1" gridSize="10" guides="1" tooltips="1" connect="1" arrows="1" fold="1" page="1" pageScale="1" pageWidth="1100" pageHeight="850" math="0" shadow="0">
      <root>
        <mxCell id="0" />
        <mxCell id="1" parent="0" />
        <mxCell id="title" value="AI-Powered Robot Behavior Testing Framework" style="text;html=1;strokeColor=none;fillColor=none;align=center;verticalAlign=middle;whiteSpace=wrap;rounded=0;fontSize=24;fontStyle=1" parent="1" vertex="1">
          <mxGeometry x="250" y="20" width="600" height="40" as="geometry" />
        </mxCell>
        <mxCell id="rosModule" value="ROS Agent Module" style="swimlane;fontStyle=1;childLayout=stackLayout;horizontal=1;startSize=30;fillColor=#d5e8d4;horizontalStack=0;resizeParent=1;resizeParentMax=0;resizeLast=0;collapsible=0;marginBottom=0;strokeColor=#82b366;fontSize=16;rounded=1;" parent="1" vertex="1">
          <mxGeometry x="40" y="100" width="240" height="190" as="geometry" />
        </mxCell>
        <mxCell id="rosInt" value="ROS 2 Integration" style="text;strokeColor=#82b366;fillColor=#f5f9f5;align=left;verticalAlign=middle;spacingLeft=4;spacingRight=4;overflow=hidden;rotatable=0;points=[[0,0.5],[1,0.5]];portConstraint=eastwest;fontSize=12;rounded=1;" parent="rosModule" vertex="1">
          <mxGeometry y="30" width="240" height="30" as="geometry" />
        </mxCell>
        <mxCell id="sysUnd" value="System Understanding" style="text;strokeColor=#82b366;fillColor=#f5f9f5;align=left;verticalAlign=middle;spacingLeft=4;spacingRight=4;overflow=hidden;rotatable=0;points=[[0,0.5],[1,0.5]];portConstraint=eastwest;fontSize=12;rounded=1;" parent="rosModule" vertex="1">
          <mxGeometry y="60" width="240" height="30" as="geometry" />
        </mxCell>
        <mxCell id="perception" value="Multi-Modal Perception" style="text;strokeColor=#82b366;fillColor=#f5f9f5;align=left;verticalAlign=middle;spacingLeft=4;spacingRight=4;overflow=hidden;rotatable=0;points=[[0,0.5],[1,0.5]];portConstraint=eastwest;fontSize=12;rounded=1;" parent="rosModule" vertex="1">
          <mxGeometry y="90" width="240" height="30" as="geometry" />
        </mxCell>
        <mxCell id="cmdExec" value="Command Executor" style="text;strokeColor=#82b366;fillColor=#f5f9f5;align=left;verticalAlign=middle;spacingLeft=4;spacingRight=4;overflow=hidden;rotatable=0;points=[[0,0.5],[1,0.5]];portConstraint=eastwest;fontSize=12;rounded=1;" parent="rosModule" vertex="1">
          <mxGeometry y="120" width="240" height="30" as="geometry" />
        </mxCell>
        <mxCell id="stateMon" value="State Monitoring" style="text;strokeColor=#82b366;fillColor=#f5f9f5;align=left;verticalAlign=middle;spacingLeft=4;spacingRight=4;overflow=hidden;rotatable=0;points=[[0,0.5],[1,0.5]];portConstraint=eastwest;fontSize=12;rounded=1;" parent="rosModule" vertex="1">
          <mxGeometry y="150" width="240" height="30" as="geometry" />
        </mxCell>
        <mxCell id="behaviorModule" value="Behavior Simulator Module" style="swimlane;fontStyle=1;childLayout=stackLayout;horizontal=1;startSize=30;fillColor=#dae8fc;horizontalStack=0;resizeParent=1;resizeParentMax=0;resizeLast=0;collapsible=0;marginBottom=0;strokeColor=#6c8ebf;fontSize=16;rounded=1;" parent="1" vertex="1">
          <mxGeometry x="430" y="100" width="240" height="190" as="geometry" />
        </mxCell>
        <mxCell id="llmSim" value="LLM-Powered Logic Simulator" style="text;strokeColor=#6c8ebf;fillColor=#f5f9fc;align=left;verticalAlign=middle;spacingLeft=4;spacingRight=4;overflow=hidden;rotatable=0;points=[[0,0.5],[1,0.5]];portConstraint=eastwest;fontSize=12;rounded=1;" parent="behaviorModule" vertex="1">
          <mxGeometry y="30" width="240" height="30" as="geometry" />
        </mxCell>
        <mxCell id="cbs" value="Chain of Behavior Simulation" style="text;strokeColor=#6c8ebf;fillColor=#f5f9fc;align=left;verticalAlign=middle;spacingLeft=4;spacingRight=4;overflow=hidden;rotatable=0;points=[[0,0.5],[1,0.5]];portConstraint=eastwest;fontSize=12;rounded=1;" parent="behaviorModule" vertex="1">
          <mxGeometry y="60" width="240" height="30" as="geometry" />
        </mxCell>
        <mxCell id="bpl" value="Behavior Planning Logic" style="text;strokeColor=#6c8ebf;fillColor=#f5f9fc;align=left;verticalAlign=middle;spacingLeft=4;spacingRight=4;overflow=hidden;rotatable=0;points=[[0,0.5],[1,0.5]];portConstraint=eastwest;fontSize=12;rounded=1;" parent="behaviorModule" vertex="1">
          <mxGeometry y="90" width="240" height="30" as="geometry" />
        </mxCell>
        <mxCell id="codeReason" value="Code-Driven Reasoning" style="text;strokeColor=#6c8ebf;fillColor=#f5f9fc;align=left;verticalAlign=middle;spacingLeft=4;spacingRight=4;overflow=hidden;rotatable=0;points=[[0,0.5],[1,0.5]];portConstraint=eastwest;fontSize=12;rounded=1;" parent="behaviorModule" vertex="1">
          <mxGeometry y="120" width="240" height="30" as="geometry" />
        </mxCell>
        <mxCell id="reflFeed" value="Reflective Feedback Loop" style="text;strokeColor=#6c8ebf;fillColor=#f5f9fc;align=left;verticalAlign=middle;spacingLeft=4;spacingRight=4;overflow=hidden;rotatable=0;points=[[0,0.5],[1,0.5]];portConstraint=eastwest;fontSize=12;rounded=1;" parent="behaviorModule" vertex="1">
          <mxGeometry y="150" width="240" height="30" as="geometry" />
        </mxCell>
        <mxCell id="testCaseModule" value="Test Case Generator" style="swimlane;fontStyle=1;childLayout=stackLayout;horizontal=1;startSize=30;fillColor=#f8cecc;horizontalStack=0;resizeParent=1;resizeParentMax=0;resizeLast=0;collapsible=0;marginBottom=0;strokeColor=#b85450;fontSize=16;rounded=1;" parent="1" vertex="1">
          <mxGeometry x="820" y="100" width="240" height="190" as="geometry" />
        </mxCell>
        <mxCell id="scenario" value="Scenario Creation" style="text;strokeColor=#b85450;fillColor=#fdf5f5;align=left;verticalAlign=middle;spacingLeft=4;spacingRight=4;overflow=hidden;rotatable=0;points=[[0,0.5],[1,0.5]];portConstraint=eastwest;fontSize=12;rounded=1;" parent="testCaseModule" vertex="1">
          <mxGeometry y="30" width="240" height="30" as="geometry" />
        </mxCell>
        <mxCell id="edgeCase" value="Edge Case Detection" style="text;strokeColor=#b85450;fillColor=#fdf5f5;align=left;verticalAlign=middle;spacingLeft=4;spacingRight=4;overflow=hidden;rotatable=0;points=[[0,0.5],[1,0.5]];portConstraint=eastwest;fontSize=12;rounded=1;" parent="testCaseModule" vertex="1">
          <mxGeometry y="60" width="240" height="30" as="geometry" />
        </mxCell>
        <mxCell id="testEnv" value="Test Environment Setup" style="text;strokeColor=#b85450;fillColor=#fdf5f5;align=left;verticalAlign=middle;spacingLeft=4;spacingRight=4;overflow=hidden;rotatable=0;points=[[0,0.5],[1,0.5]];portConstraint=eastwest;fontSize=12;rounded=1;" parent="testCaseModule" vertex="1">
          <mxGeometry y="90" width="240" height="30" as="geometry" />
        </mxCell>
        <mxCell id="benchMgt" value="Benchmark Management" style="text;strokeColor=#b85450;fillColor=#fdf5f5;align=left;verticalAlign=middle;spacingLeft=4;spacingRight=4;overflow=hidden;rotatable=0;points=[[0,0.5],[1,0.5]];portConstraint=eastwest;fontSize=12;rounded=1;" parent="testCaseModule" vertex="1">
          <mxGeometry y="120" width="240" height="30" as="geometry" />
        </mxCell>
        <mxCell id="workflowSection" value="Testing Workflow" style="swimlane;fontStyle=1;childLayout=stackLayout;horizontal=1;startSize=30;fillColor=#f5f5f5;horizontalStack=0;resizeParent=1;resizeParentMax=0;resizeLast=0;collapsible=0;marginBottom=0;strokeColor=#666666;strokeWidth=2;fontSize=18;rounded=1;dashed=1;" parent="1" vertex="1">
          <mxGeometry x="40" y="330" width="1020" height="490" as="geometry" />
        </mxCell>
        <mxCell id="sysUndWf" value="System Understanding" style="rounded=1;whiteSpace=wrap;html=1;fillColor=#e1e1e1;strokeColor=#666666;fontStyle=1;fontSize=14;" parent="1" vertex="1">
          <mxGeometry x="80" y="390" width="180" height="60" as="geometry" />
        </mxCell>
        <mxCell id="tcgWf" value="Test Case Generation" style="rounded=1;whiteSpace=wrap;html=1;fillColor=#e1e1e1;strokeColor=#666666;fontStyle=1;fontSize=14;" parent="1" vertex="1">
          <mxGeometry x="360" y="390" width="180" height="60" as="geometry" />
        </mxCell>
        <mxCell id="bsWf" value="Behavior Simulation" style="rounded=1;whiteSpace=wrap;html=1;fillColor=#e1e1e1;strokeColor=#666666;fontStyle=1;fontSize=14;" parent="1" vertex="1">
          <mxGeometry x="360" y="500" width="180" height="60" as="geometry" />
        </mxCell>
        <mxCell id="execWf" value="Test Execution in Sim" style="rounded=1;whiteSpace=wrap;html=1;fillColor=#e1e1e1;strokeColor=#666666;fontStyle=1;fontSize=14;" parent="1" vertex="1">
          <mxGeometry x="80" y="500" width="180" height="60" as="geometry" />
        </mxCell>
        <mxCell id="verifyWf" value="Results Verification" style="rounded=1;whiteSpace=wrap;html=1;fillColor=#e1e1e1;strokeColor=#666666;fontStyle=1;fontSize=14;" parent="1" vertex="1">
          <mxGeometry x="80" y="610" width="180" height="60" as="geometry" />
        </mxCell>
        <mxCell id="diagWf" value="Error Diagnosis" style="rounded=1;whiteSpace=wrap;html=1;fillColor=#e1e1e1;strokeColor=#666666;fontStyle=1;fontSize=14;" parent="1" vertex="1">
          <mxGeometry x="360" y="610" width="180" height="60" as="geometry" />
        </mxCell>
        <mxCell id="cbsProcess" value="Chain of Behavior Simulation Process" style="swimlane;fontStyle=1;childLayout=stackLayout;horizontal=1;startSize=30;fillColor=#fff2cc;horizontalStack=0;resizeParent=1;resizeParentMax=0;resizeLast=0;collapsible=0;marginBottom=0;strokeColor=#d6b656;fontSize=14;rounded=1;" parent="1" vertex="1">
          <mxGeometry x="650" y="390" width="300" height="230" as="geometry" />
        </mxCell>
        <mxCell id="cbsStep1" value="1. Consider Action Feasibility" style="text;strokeColor=#d6b656;fillColor=#fffbf2;align=left;verticalAlign=middle;spacingLeft=4;spacingRight=4;overflow=hidden;rotatable=0;points=[[0,0.5],[1,0.5]];portConstraint=eastwest;fontSize=12;rounded=1;" parent="cbsProcess" vertex="1">
          <mxGeometry y="30" width="300" height="30" as="geometry" />
        </mxCell>
        <mxCell id="cbsStep2" value="2. Make Decision &amp; Execute" style="text;strokeColor=#d6b656;fillColor=#fffbf2;align=left;verticalAlign=middle;spacingLeft=4;spacingRight=4;overflow=hidden;rotatable=0;points=[[0,0.5],[1,0.5]];portConstraint=eastwest;fontSize=12;rounded=1;" parent="cbsProcess" vertex="1">
          <mxGeometry y="60" width="300" height="30" as="geometry" />
        </mxCell>
        <mxCell id="cbsStep3" value="3. Capture State Transitions" style="text;strokeColor=#d6b656;fillColor=#fffbf2;align=left;verticalAlign=middle;spacingLeft=4;spacingRight=4;overflow=hidden;rotatable=0;points=[[0,0.5],[1,0.5]];portConstraint=eastwest;fontSize=12;rounded=1;" parent="cbsProcess" vertex="1">
          <mxGeometry y="90" width="300" height="30" as="geometry" />
        </mxCell>
        <mxCell id="cbsStep4" value="4. Transfer &amp; Reflect on Outcomes" style="text;strokeColor=#d6b656;fillColor=#fffbf2;align=left;verticalAlign=middle;spacingLeft=4;spacingRight=4;overflow=hidden;rotatable=0;points=[[0,0.5],[1,0.5]];portConstraint=eastwest;fontSize=12;rounded=1;" parent="cbsProcess" vertex="1">
          <mxGeometry y="120" width="300" height="30" as="geometry" />
        </mxCell>
        <mxCell id="cbsStep5" value="5. Apply Reflective Feedback" style="text;strokeColor=#d6b656;fillColor=#fffbf2;align=left;verticalAlign=middle;spacingLeft=4;spacingRight=4;overflow=hidden;rotatable=0;points=[[0,0.5],[1,0.5]];portConstraint=eastwest;fontSize=12;rounded=1;" parent="cbsProcess" vertex="1">
          <mxGeometry y="150" width="300" height="30" as="geometry" />
        </mxCell>
        <mxCell id="cbsStep6" value="6. Validate Action Impact" style="text;strokeColor=#d6b656;fillColor=#fffbf2;align=left;verticalAlign=middle;spacingLeft=4;spacingRight=4;overflow=hidden;rotatable=0;points=[[0,0.5],[1,0.5]];portConstraint=eastwest;fontSize=12;rounded=1;" parent="cbsProcess" vertex="1">
          <mxGeometry y="180" width="300" height="30" as="geometry" />
        </mxCell>
        <mxCell id="conn1" style="edgeStyle=orthogonalEdgeStyle;rounded=0;orthogonalLoop=1;jettySize=auto;html=1;exitX=1;exitY=0.5;exitDx=0;exitDy=0;entryX=0;entryY=0.5;entryDx=0;entryDy=0;startArrow=none;startFill=0;endArrow=classic;endFill=1;dashed=1;" parent="1" source="rosInt" target="llmSim" edge="1">
          <mxGeometry relative="1" as="geometry" />
        </mxCell>
        <mxCell id="conn2" style="edgeStyle=orthogonalEdgeStyle;rounded=0;orthogonalLoop=1;jettySize=auto;html=1;exitX=1;exitY=0.5;exitDx=0;exitDy=0;entryX=0;entryY=0.5;entryDx=0;entryDy=0;startArrow=none;startFill=0;endArrow=classic;endFill=1;dashed=1;" parent="1" source="llmSim" target="scenario" edge="1">
          <mxGeometry relative="1" as="geometry" />
        </mxCell>
        <mxCell id="conn3" style="edgeStyle=orthogonalEdgeStyle;rounded=0;orthogonalLoop=1;jettySize=auto;html=1;exitX=1;exitY=0.5;exitDx=0;exitDy=0;entryX=0;entryY=0.5;entryDx=0;entryDy=0;startArrow=none;startFill=0;endArrow=classic;endFill=1;" parent="1" source="sysUndWf" target="tcgWf" edge="1">
          <mxGeometry relative="1" as="geometry" />
        </mxCell>
        <mxCell id="conn4" style="edgeStyle=orthogonalEdgeStyle;rounded=0;orthogonalLoop=1;jettySize=auto;html=1;exitX=0.5;exitY=1;exitDx=0;exitDy=0;entryX=0.5;entryY=0;entryDx=0;entryDy=0;startArrow=none;startFill=0;endArrow=classic;endFill=1;" parent="1" source="tcgWf" target="bsWf" edge="1">
          <mxGeometry relative="1" as="geometry" />
        </mxCell>
        <mxCell id="conn5" style="edgeStyle=orthogonalEdgeStyle;rounded=0;orthogonalLoop=1;jettySize=auto;html=1;exitX=0;exitY=0.5;exitDx=0;exitDy=0;entryX=1;entryY=0.5;entryDx=0;entryDy=0;startArrow=none;startFill=0;endArrow=classic;endFill=1;" parent="1" source="bsWf" target="execWf" edge="1">
          <mxGeometry relative="1" as="geometry" />
        </mxCell>
        <mxCell id="conn6" style="edgeStyle=orthogonalEdgeStyle;rounded=0;orthogonalLoop=1;jettySize=auto;html=1;exitX=0.5;exitY=1;exitDx=0;exitDy=0;entryX=0.5;entryY=0;entryDx=0;entryDy=0;startArrow=none;startFill=0;endArrow=classic;endFill=1;" parent="1" source="execWf" target="verifyWf" edge="1">
          <mxGeometry relative="1" as="geometry" />
        </mxCell>
        <mxCell id="conn7" style="edgeStyle=orthogonalEdgeStyle;rounded=0;orthogonalLoop=1;jettySize=auto;html=1;exitX=1;exitY=0.5;exitDx=0;exitDy=0;entryX=0;entryY=0.5;entryDx=0;entryDy=0;startArrow=none;startFill=0;endArrow=classic;endFill=1;" parent="1" source="verifyWf" target="diagWf" edge="1">
          <mxGeometry relative="1" as="geometry" />
        </mxCell>
        <mxCell id="conn8" style="edgeStyle=orthogonalEdgeStyle;rounded=0;orthogonalLoop=1;jettySize=auto;html=1;exitX=0.5;exitY=0;exitDx=0;exitDy=0;entryX=1;entryY=0.25;entryDx=0;entryDy=0;startArrow=none;startFill=0;endArrow=classic;endFill=1;dashed=1;" parent="1" source="diagWf" target="sysUndWf" edge="1">
          <mxGeometry relative="1" as="geometry">
            <Array as="points">
              <mxPoint x="450" y="580" />
              <mxPoint x="580" y="580" />
              <mxPoint x="580" y="405" />
            </Array>
          </mxGeometry>
        </mxCell>
        <mxCell id="conn9" style="edgeStyle=orthogonalEdgeStyle;rounded=0;orthogonalLoop=1;jettySize=auto;html=1;exitX=1;exitY=0.5;exitDx=0;exitDy=0;entryX=0;entryY=0.5;entryDx=0;entryDy=0;startArrow=none;startFill=0;endArrow=classic;endFill=1;" parent="1" source="bsWf" target="cbsProcess" edge="1">
          <mxGeometry relative="1" as="geometry" />
        </mxCell>
        <mxCell id="conn10" style="edgeStyle=orthogonalEdgeStyle;rounded=0;orthogonalLoop=1;jettySize=auto;html=1;exitX=0.5;exitY=1;exitDx=0;exitDy=0;entryX=0.5;entryY=0;entryDx=0;entryDy=0;startArrow=none;startFill=0;endArrow=classic;endFill=1;dashed=1;" parent="1" source="rosModule" target="sysUndWf" edge="1">
          <mxGeometry relative="1" as="geometry" />
        </mxCell>
        <mxCell id="conn11" style="edgeStyle=orthogonalEdgeStyle;rounded=0;orthogonalLoop=1;jettySize=auto;html=1;exitX=0.5;exitY=1;exitDx=0;exitDy=0;entryX=0.5;entryY=0;entryDx=0;entryDy=0;startArrow=none;startFill=0;endArrow=classic;endFill=1;dashed=1;" parent="1" source="behaviorModule" target="tcgWf" edge="1">
          <mxGeometry relative="1" as="geometry" />
        </mxCell>
        <mxCell id="conn12" style="edgeStyle=orthogonalEdgeStyle;rounded=0;orthogonalLoop=1;jettySize=auto;html=1;exitX=0.5;exitY=1;exitDx=0;exitDy=0;entryX=0.75;entryY=0;entryDx=0;entryDy=0;startArrow=none;startFill=0;endArrow=classic;endFill=1;dashed=1;" parent="1" source="testCaseModule" target="tcgWf" edge="1">
          <mxGeometry relative="1" as="geometry">
            <Array as="points">
              <mxPoint x="940" y="310" />
              <mxPoint x="495" y="310" />
            </Array>
          </mxGeometry>
        </mxCell>
        <mxCell id="conn13" style="edgeStyle=orthogonalEdgeStyle;rounded=0;orthogonalLoop=1;jettySize=auto;html=1;exitX=0.5;exitY=1;exitDx=0;exitDy=0;entryX=1;entryY=0.5;entryDx=0;entryDy=0;startArrow=none;startFill=0;endArrow=classic;endFill=1;dashed=1;" parent="1" source="cbsStep6" target="diagWf" edge="1">
          <mxGeometry relative="1" as="geometry">
            <Array as="points">
              <mxPoint x="800" y="640" />
            </Array>
          </mxGeometry>
        </mxCell>
      </root>
    </mxGraphModel>
  </diagram>
</mxfile>
